Coordinates
version=1
nRows=22
nColumns=24
inDegrees=yes

Units are S.I. units (second, meters, Newtons, ...)
Angles are in degrees.

endheader
time	pelvis_tilt	pelvis_list	pelvis_rotation	pelvis_tx	pelvis_ty	pelvis_tz	hip_flexion_r	hip_adduction_r	hip_rotation_r	knee_angle_r	ankle_angle_r	subtalar_angle_r	mtp_angle_r	hip_flexion_l	hip_adduction_l	hip_rotation_l	knee_angle_l	ankle_angle_l	subtalar_angle_l	mtp_angle_l	lumbar_extension	lumbar_bending	lumbar_rotation
      0.84166667	      2.18045785	     -1.20615909	     -2.03063799	     -0.46269188	      1.07418903	      0.34980965	      5.99889141	      6.77709753	     -0.90170018	    -11.30057671	      0.33956982	     -9.30309376	      2.22504902	     11.00475686	     -2.17381245	     -2.44151439	    -62.63976513	      2.32073497	     -6.03116045	      6.65572844	      1.57451337	      4.37576489	     -1.21462026
      0.84583333	      2.20577420	     -1.11726273	     -2.14922457	     -0.45765629	      1.07485915	      0.35008453	      5.61057658	      6.67937611	     -0.81873058	    -11.19279586	      0.52397581	     -9.20632781	      2.23820138	     11.49465766	     -2.08366174	     -2.33916471	    -62.40607819	      2.93534628	     -6.73753993	      6.55241019	      1.51548266	      4.26399815	     -1.09383606
      0.85000000	      2.23479696	     -1.01052376	     -2.31549695	     -0.45267221	      1.07551239	      0.35034187	      5.23891402	      6.55530061	     -0.76724954	    -11.12264008	      0.73919345	     -9.04703016	      2.25717310	     11.96050164	     -1.97378328	     -2.28786348	    -62.09513494	      3.44829701	     -7.43282300	      6.38476892	      1.42860414	      4.19368225	     -0.92485837
      0.85416667	      2.25459046	     -0.95229986	     -2.36699382	     -0.44765701	      1.07611110	      0.35070115	      4.82846105	      6.50530690	     -0.62961944	    -10.94258736	      0.87273104	     -8.93075745	      2.26792800	     12.44626781	     -1.92645531	     -2.11556300	    -61.75323310	      3.85619754	     -7.84086815	      6.29414130	      1.38267728	      4.02145811	     -0.80423342
      0.85833333	      2.28899525	     -0.86114939	     -2.50231464	     -0.44266962	      1.07673356	      0.35097919	      4.42918659	      6.40255163	     -0.54191121	    -10.82108632	      1.05036384	     -8.82813955	      2.27965783	     12.88027932	     -1.83357747	     -2.02495413	    -61.32835169	      4.38073134	     -8.32003647	      6.18575298	      1.31366824	      3.90208726	     -0.67554644
      0.86250000	      2.30407435	     -0.78740753	     -2.62468881	     -0.43770069	      1.07728166	      0.35126247	      4.04580549	      6.32200582	     -0.43394843	    -10.68542711	      1.21553973	     -8.71129334	      2.29086472	     13.32853508	     -1.76284907	     -1.91859688	    -60.85451763	      4.80284903	     -8.68521003	      6.07692501	      1.24485250	      3.79524661	     -0.54295962
      0.86666667	      2.33486852	     -0.70591608	     -2.76370811	     -0.43275542	      1.07782960	      0.35154096	      3.64919395	      6.23019225	     -0.33195726	    -10.55346464	      1.39201703	     -8.59263176	      2.30242744	     13.74037777	     -1.68330575	     -1.82785703	    -60.31333117	      5.21550121	     -9.00381425	      5.95347870	      1.17567114	      3.68888616	     -0.39316207
      0.87083333	      2.37634289	     -0.62544024	     -2.97456875	     -0.42788711	      1.07836916	      0.35177282	      3.26225206	      6.12702785	     -0.22531351	    -10.46577863	      1.66766986	     -8.32302514	      2.33148098	     14.11585781	     -1.60491002	     -1.80820960	    -59.70924053	      5.61511926	     -9.30785177	      5.56357047	      0.97276603	      3.66782409	     -0.02332980
      0.87500000	      2.38636967	     -0.57925745	     -3.03523055	     -0.42288053	      1.07882727	      0.35198668	      2.85633017	      6.07545846	     -0.13108708	    -10.26901591	      1.73944458	     -8.28601102	      2.33725165	     14.52856061	     -1.55179633	     -1.62296461	    -59.06406874	      5.85331993	     -9.41750771	      5.47428941	      0.99070101	      3.56221184	      0.05795144
      0.87916667	      2.40154573	     -0.52838098	     -3.16079349	     -0.41793496	      1.07926039	      0.35221433	      2.45948944	      6.01432969	     -0.01026816	    -10.09843389	      1.86654389	     -8.24273670	      2.34405747	     14.91273980	     -1.50221797	     -1.51461347	    -58.36478672	      6.19861026	     -9.56348783	      5.36761030	      0.94960023	      3.47514314	      0.15327595
      0.88333333	      2.41049493	     -0.48399269	     -3.29178207	     -0.41300930	      1.07964584	      0.35243065	      2.06848750	      5.95939620	      0.12231562	     -9.92444554	      2.00216849	     -8.19149518	      2.35056030	     15.28682523	     -1.45831164	     -1.40675069	    -57.61000245	      6.49460095	     -9.65929813	      5.25531898	      0.89839498	      3.40608542	      0.26200809
      0.88750000	      2.42134796	     -0.45377320	     -3.42290491	     -0.40809884	      1.07999237	      0.35263353	      1.67218615	      5.91805694	      0.26144181	     -9.74280637	      2.13576109	     -8.13855357	      2.35639098	     15.64435886	     -1.43094053	     -1.30170582	    -56.80683247	      6.75679469	     -9.71926240	      5.13695252	      0.84381843	      3.36182824	      0.38196100
      0.89166667	      2.37307593	     -0.43177558	     -3.53369420	     -0.40325440	      1.08020705	      0.35269519	      1.35740006	      5.87728282	      0.31803953	     -9.58640253	      2.19140489	     -8.12511144	      2.35792568	     16.06604326	     -1.39696488	     -1.15800096	    -55.96452969	      6.87963901	     -9.73575426	      5.10039368	      0.74671205	      3.37845074	      0.41276174
      0.89583333	      2.43927169	     -0.39505311	     -3.75329766	     -0.39833522	      1.08059558	      0.35304385	      0.89475505	      5.82784648	      0.56962207	     -9.39993284	      2.44004968	     -8.05957731	      2.36573763	     16.30271120	     -1.38726367	     -1.16261889	    -55.03393678	      7.23202007	     -9.77645021	      4.85154715	      0.64324296	      3.26984119	      0.70072153
      0.90000000	      2.39132478	     -0.40288549	     -3.81809928	     -0.39345916	      1.08072989	      0.35304414	      0.55597246	      5.81934551	      0.64233487	     -9.19758897	      2.47933337	     -8.03883843	      2.36666736	     16.69474983	     -1.37494291	     -0.97229325	    -54.09866901	      7.31325483	     -9.78049382	      4.80742840	      0.59929301	      3.31969131	      0.73795447
      0.90416667	      2.40453841	     -0.40908768	     -3.90406021	     -0.38846966	      1.08095683	      0.35319975	      0.12101844	      5.81754363	      0.78478004	     -8.94421797	      2.58312613	     -8.01637689	      2.36814522	     16.97933194	     -1.37895753	     -0.84486014	    -53.08813954	      7.43179971	     -9.81024882	      4.71195661	      0.64925999	      3.31088310	      0.84906216
      0.90833333	      2.34268715	     -0.42172787	     -4.00459473	     -0.38361867	      1.08100459	      0.35317307	     -0.19723328	      5.80740651	      0.87015541	     -8.75826218	      2.64782247	     -8.01378715	      2.36845800	     17.34501901	     -1.37503983	     -0.69246970	    -52.05319247	      7.51683303	     -9.82916606	      4.66437869	      0.57210612	      3.34878130	      0.89254490
      0.91250000	      2.54711750	     -0.42374080	     -4.19952310	     -0.37877909	      1.08145382	      0.35347015	     -0.83340022	      5.78301313	      1.15539036	     -8.50503764	      2.78458868	     -8.10329238	      2.35520300	     17.36272074	     -1.39243463	     -0.70028180	    -50.89906924	      7.49036406	    -10.00400864	      3.84712426	      0.23987635	      3.43211552	      1.63205885
      0.91666667	      2.44709917	     -0.45497336	     -4.25591456	     -0.37388369	      1.08136895	      0.35339580	     -1.12555363	      5.79733132	      1.23139619	     -8.29121171	      2.83787762	     -8.08928298	      2.35494752	     17.74089795	     -1.40121836	     -0.51238401	    -49.78311624	      7.56637402	    -10.01549640	      3.80433636	      0.23222695	      3.45464659	      1.62685609
      0.92083333	      2.39963964	     -0.48588122	     -4.32210596	     -0.36885451	      1.08135950	      0.35346973	     -1.50569156	      5.82025627	      1.37588398	     -8.02457418	      2.94572157	     -8.08862751	      2.35364931	     18.02151875	     -1.42585274	     -0.38534918	    -48.59193297	      7.58260869	    -10.07479373	      3.71745149	      0.37059958	      3.46305343	      1.64523789
      0.92500000	      2.35106363	     -0.51158801	     -4.41228989	     -0.36388273	      1.08130708	      0.35350385	     -1.87527583	      5.82892958	      1.54230459	     -7.77618871	      3.05711867	     -8.12002297	      2.35025304	     18.28528285	     -1.44345594	     -0.27254368	    -47.34887320	      7.52793290	    -10.19413602	      3.60282082	      0.42023374	      3.48249683	      1.67770336
      0.92916667	      2.29090020	     -0.54523128	     -4.48455621	     -0.35891718	      1.08119787	      0.35349789	     -2.23079128	      5.84559063	      1.68503024	     -7.52815599	      3.14827807	     -8.16317080	      2.34581709	     18.54790578	     -1.46506357	     -0.15342648	    -46.06577074	      7.44587673	    -10.34636077	      3.49002277	      0.44755145	      3.52685342	      1.71970784
